<svg width="40" height="40" viewBox="0 0 40 40" fill="none" xmlns="http://www.w3.org/2000/svg">
<path d="M13.7782 24.4668C13.4715 24.4668 13.2649 24.4968 13.1582 24.5268V26.4901C13.2849 26.5201 13.4432 26.5285 13.6615 26.5285C14.4599 26.5285 14.9515 26.1251 14.9515 25.4435C14.9515 24.8335 14.5282 24.4668 13.7782 24.4668ZM19.5899 24.4868C19.2565 24.4868 19.0399 24.5168 18.9115 24.5468V28.8968C19.0399 28.9268 19.2465 28.9268 19.4332 28.9268C20.7949 28.9368 21.6815 28.1868 21.6815 26.6001C21.6915 25.2168 20.8832 24.4868 19.5899 24.4868Z" fill="#DB291F"/>
<path d="M23.9194 3.91928C23.5444 3.54421 23.0357 3.3335 22.5052 3.3335H10.0003C9.11627 3.3335 8.26842 3.68469 7.6433 4.30981C7.01818 4.93493 6.66699 5.78277 6.66699 6.66683V33.3335C6.66699 34.2176 7.01818 35.0654 7.6433 35.6905C8.26842 36.3156 9.11627 36.6668 10.0003 36.6668H30.0003C30.8844 36.6668 31.7322 36.3156 32.3573 35.6905C32.9825 35.0654 33.3337 34.2176 33.3337 33.3335V14.1619C33.3337 13.6315 33.1229 13.1228 32.7479 12.7477L23.9194 3.91928ZM15.8303 26.9835C15.3153 27.4668 14.5553 27.6835 13.6703 27.6835C13.4987 27.6854 13.3272 27.6753 13.157 27.6535V30.0302H11.667V23.4702C12.3394 23.3699 13.0189 23.3242 13.6987 23.3335C14.627 23.3335 15.287 23.5102 15.732 23.8652C16.1553 24.2018 16.442 24.7535 16.442 25.4035C16.4403 26.0568 16.2237 26.6085 15.8303 26.9835ZM22.1753 29.2418C21.4753 29.8235 20.4103 30.1002 19.1087 30.1002C18.3287 30.1002 17.777 30.0502 17.402 30.0002V23.4718C18.0747 23.3736 18.7539 23.3274 19.4337 23.3335C20.6953 23.3335 21.5153 23.5602 22.1553 24.0435C22.847 24.5568 23.2803 25.3752 23.2803 26.5502C23.2803 27.8218 22.8153 28.7002 22.1753 29.2418ZM28.3337 24.6168H25.7803V26.1352H28.167V27.3585H25.7803V30.0318H24.2703V23.3835H28.3337V24.6168ZM23.3337 15.0002H21.667V6.66683L30.0003 15.0002H23.3337Z" fill="#DB291F"/>
</svg>
