<svg width="28" height="34" viewBox="0 0 28 34" fill="none" xmlns="http://www.w3.org/2000/svg">
<path d="M17.919 0.919099C17.5439 0.544026 17.0352 0.333313 16.5047 0.333313H3.99984C3.11578 0.333313 2.26794 0.684502 1.64281 1.30962C1.01769 1.93474 0.666504 2.78259 0.666504 3.66665V30.3333C0.666504 31.2174 1.01769 32.0652 1.64281 32.6903C2.26794 33.3155 3.11578 33.6666 3.99984 33.6666H23.9998C24.8839 33.6666 25.7317 33.3155 26.3569 32.6903C26.982 32.0652 27.3332 31.2174 27.3332 30.3333V11.1617C27.3332 10.6313 27.1225 10.1226 26.7474 9.74753L17.919 0.919099ZM9.82984 23.9833C9.31484 24.4666 8.55484 24.6833 7.66984 24.6833C7.49824 24.6852 7.32672 24.6752 7.1565 24.6533V27.03H5.6665V20.47C6.33893 20.3697 7.01837 20.324 7.69817 20.3333C8.6265 20.3333 9.2865 20.51 9.7315 20.865C10.1548 21.2016 10.4415 21.7533 10.4415 22.4033C10.4398 23.0566 10.2232 23.6083 9.82984 23.9833ZM16.1748 26.2416C15.4748 26.8233 14.4098 27.1 13.1082 27.1C12.3282 27.1 11.7765 27.05 11.4015 27V20.4716C12.0742 20.3735 12.7534 20.3272 13.4332 20.3333C14.6948 20.3333 15.5148 20.56 16.1548 21.0433C16.8465 21.5566 17.2798 22.375 17.2798 23.55C17.2798 24.8216 16.8148 25.7 16.1748 26.2416ZM22.3332 21.6166H19.7798V23.135H22.1665V24.3583H19.7798V27.0316H18.2698V20.3833H22.3332V21.6166ZM17.3332 12H15.6665V3.66665L23.9998 12H17.3332Z" fill="#DB291F"/>
</svg>
