<svg width="20" height="23" viewBox="0 0 20 23" fill="none" xmlns="http://www.w3.org/2000/svg">
<path d="M2.93006 22.25C2.51006 22.25 2.12006 22.15 1.77006 21.95C1.00006 21.5 0.560059 20.59 0.560059 19.46V5.36C0.560059 2.82 2.63006 0.75 5.17006 0.75H14.8201C17.3601 0.75 19.4301 2.82 19.4301 5.36V19.45C19.4301 20.58 18.9901 21.49 18.2201 21.94C17.4501 22.39 16.4401 22.34 15.4501 21.79L10.5701 19.08C10.2801 18.92 9.71006 18.92 9.42006 19.08L4.54006 21.79C4.00006 22.09 3.45006 22.25 2.93006 22.25ZM5.18006 2.25C3.47006 2.25 2.07006 3.65 2.07006 5.36V19.45C2.07006 20.04 2.24006 20.48 2.54006 20.65C2.84006 20.83 3.31006 20.77 3.82006 20.48L8.70006 17.77C9.44006 17.36 10.5601 17.36 11.3001 17.77L16.1801 20.48C16.6901 20.77 17.1601 20.83 17.4601 20.65C17.7601 20.47 17.9301 20.03 17.9301 19.45V5.36C17.9301 3.65 16.5301 2.25 14.8201 2.25H5.18006Z" fill="white"/>
</svg>
